{"title":"Merida Waleczna Dubbing PL","uid":7916808,"size":734539776,"categoryP":"video","categoryS":"movies","magnet":"?xt=urn:btih:139cf7aa742dd38bb54f8fddde7b9bcc1cb7e5f8&amp;dn=Merida+Waleczna+Dubbing+PL&amp;tr=udp%3A%2F%2Ftracker.openbittorrent.com%3A80&amp;tr=udp%3A%2F%2Fopen.demonii.com%3A1337&amp;tr=udp%3A%2F%2Ftracker.coppersurfer.tk%3A6969&amp;tr=udp%3A%2F%2Fexodus.desync.com%3A6969","seeders":11,"leechers":0,"uploader":"R3DS3CTOR","files":1,"time":1355388982,"description":"d:torrentMerida Waleczna.dubbing.pl.avi\n   General\n      Complete name : d:torrentMerida Waleczna.dubbing.pl.avi\n      Format : AVI\n      Format/Info : Audio Video Interleave\n      File size : 701 MiB\n      Duration : 1h 34mn\n      Overall bit rate : 1 040 Kbps\n      Writing application : VirtualDubMod 1.5.10.2 (build 2540/release)\n      Writing library : VirtualDubMod build 2540/release\n   Video #0\n      ID : 0\n      Format : MPEG-4 Visual\n      Format profile : Advanced Simple@L5\n      Format settings, BVOP : 1\n      Format settings, QPel : No\n      Format settings, GMC : No warppoints\n      Format settings, Matrix : Default (H.263)\n      Muxing mode : Packed bitstream\n      Codec ID : XVID\n      Codec ID/Hint : XviD\n      Duration : 1h 34mn\n      Bit rate : 902 Kbps\n      Width : 640 pixels\n      Height : 272 pixels\n      Display aspect ratio : 2.35:1\n      Frame rate : 23.976 fps\n      Color space : YUV\n      Chroma subsampling : 4:2:0\n      Bit depth : 8 bits\n      Scan type : Progressive\n      Compression mode : Lossy\n      Bits/(Pixel*Frame) : 0.216\n      Stream size : 608 MiB (87%)\n      Writing library : XviD 1.2.1 (UTC 2008-12-04)\n   Audio #1\n      ID : 1\n      Format : MPEG Audio\n      Format version : Version 1\n      Format profile : Layer 3\n      Codec ID : 55\n      Codec ID/Hint : MP3\n      Duration : 1h 34mn\n      Bit rate mode : Constant\n      Bit rate : 128 Kbps\n      Channel(s) : 2 channels\n      Sampling rate : 48.0 KHz\n      Compression mode : Lossy\n      Stream size : 86.2 MiB (12%)\n      Alignment : Aligned on interleaves\n      Interleave, duration : 42 ms (1.00 video frame)\n      Interleave, preload duration : 504 ms\n      Writing library : LAME3.99 \n      Encoding settings : -m s -V 4 -q 2 -lowpass 17 -b 128","torrent":{"xt":"urn:btih:139cf7aa742dd38bb54f8fddde7b9bcc1cb7e5f8","amp;dn":"Merida+Waleczna+Dubbing+PL","amp;tr":["udp%3A%2F%2Ftracker.openbittorrent.com%3A80","udp%3A%2F%2Fopen.demonii.com%3A1337","udp%3A%2F%2Ftracker.coppersurfer.tk%3A6969","udp%3A%2F%2Fexodus.desync.com%3A6969"],"infoHash":"139cf7aa742dd38bb54f8fddde7b9bcc1cb7e5f8","infoHashBuffer":{"type":"Buffer","data":[19,156,247,170,116,45,211,139,181,79,143,221,222,123,155,204,28,183,229,248]},"announce":[],"urlList":[]}}